<svg width="24" height="24" viewBox="0 0 24 24" fill="none" xmlns="http://www.w3.org/2000/svg">
<path d="M12.0007 7.49998C11.1107 7.49998 10.2406 7.7639 9.5006 8.25837C8.76058 8.75284 8.1838 9.45564 7.84321 10.2779C7.50261 11.1002 7.4135 12.005 7.58713 12.8779C7.76077 13.7508 8.18935 14.5526 8.81869 15.182C9.44802 15.8113 10.2498 16.2399 11.1228 16.4135C11.9957 16.5872 12.9005 16.498 13.7227 16.1574C14.545 15.8168 15.2478 15.2401 15.7423 14.5C16.2367 13.76 16.5007 12.89 16.5007 12C16.4994 10.8069 16.0249 9.66302 15.1813 8.81937C14.3376 7.97573 13.1938 7.50122 12.0007 7.49998ZM12.0007 15C11.4073 15 10.8273 14.824 10.334 14.4944C9.84061 14.1647 9.45609 13.6962 9.22903 13.148C9.00196 12.5999 8.94255 11.9967 9.05831 11.4147C9.17407 10.8328 9.45979 10.2982 9.87935 9.87866C10.2989 9.45911 10.8335 9.17338 11.4154 9.05763C11.9973 8.94187 12.6005 9.00128 13.1487 9.22834C13.6969 9.45541 14.1654 9.83993 14.4951 10.3333C14.8247 10.8266 15.0007 11.4066 15.0007 12C15.0007 12.7956 14.6846 13.5587 14.122 14.1213C13.5594 14.6839 12.7963 15 12.0007 15ZM22.3075 10.0509C22.2867 9.94531 22.2433 9.84543 22.1803 9.75807C22.1174 9.67072 22.0364 9.59793 21.9429 9.54467L19.1463 7.95092L19.135 4.79904C19.1347 4.6905 19.1108 4.58331 19.065 4.4849C19.0192 4.38649 18.9526 4.29919 18.8697 4.22904C17.8553 3.37095 16.6871 2.71336 15.4272 2.29123C15.328 2.25765 15.2229 2.24522 15.1186 2.25475C15.0143 2.26428 14.9131 2.29555 14.8216 2.34654L12.0007 3.92342L9.17692 2.34373C9.08537 2.29245 8.98409 2.26094 8.8796 2.25125C8.77512 2.24156 8.66977 2.2539 8.57035 2.28748C7.31143 2.71269 6.14456 3.37279 5.1316 4.23279C5.04889 4.30284 4.98233 4.38999 4.93653 4.48823C4.89073 4.58647 4.86677 4.69347 4.86629 4.80186L4.85223 7.95655L2.05567 9.5503C1.96211 9.60356 1.88111 9.67634 1.81818 9.7637C1.75525 9.85105 1.71187 9.95093 1.69098 10.0565C1.43504 11.3427 1.43504 12.6667 1.69098 13.9528C1.71187 14.0584 1.75525 14.1583 1.81818 14.2456C1.88111 14.333 1.96211 14.4058 2.05567 14.459L4.85223 16.0528L4.86348 19.2047C4.86382 19.3132 4.88772 19.4204 4.93352 19.5188C4.97933 19.6172 5.04595 19.7045 5.12879 19.7747C6.14323 20.6328 7.31144 21.2904 8.57129 21.7125C8.67051 21.7461 8.77565 21.7585 8.87996 21.749C8.98427 21.7394 9.08543 21.7082 9.17692 21.6572L12.0007 20.0765L14.8244 21.6562C14.9362 21.7185 15.0621 21.7508 15.19 21.75C15.272 21.75 15.3533 21.7367 15.431 21.7106C16.6898 21.286 17.8566 20.6265 18.8697 19.7672C18.9524 19.6971 19.019 19.61 19.0648 19.5117C19.1106 19.4135 19.1346 19.3065 19.135 19.1981L19.1491 16.0434L21.9457 14.4497C22.0392 14.3964 22.1202 14.3236 22.1832 14.2363C22.2461 14.1489 22.2895 14.049 22.3104 13.9434C22.5649 12.6583 22.5639 11.3357 22.3075 10.0509ZM20.9013 13.3237L18.2229 14.8472C18.1055 14.9139 18.0083 15.0111 17.9416 15.1284C17.8872 15.2222 17.83 15.3215 17.7719 15.4153C17.6975 15.5335 17.6579 15.6703 17.6575 15.81L17.6435 18.8334C16.9235 19.3988 16.1215 19.8509 15.265 20.174L12.5632 18.6684C12.451 18.6064 12.3248 18.5741 12.1966 18.5747H12.1788C12.0654 18.5747 11.951 18.5747 11.8375 18.5747C11.7034 18.5713 11.5707 18.6037 11.4532 18.6684L8.74942 20.1778C7.89115 19.8571 7.08688 19.4072 6.36442 18.8437L6.3541 15.825C6.35364 15.685 6.31402 15.548 6.23973 15.4294C6.1816 15.3356 6.12442 15.2419 6.07098 15.1425C6.00472 15.0233 5.90756 14.9242 5.78973 14.8556L3.10848 13.3284C2.96973 12.4507 2.96973 11.5567 3.10848 10.679L5.78223 9.1528C5.89958 9.08607 5.99675 8.9889 6.06348 8.87155C6.11785 8.7778 6.17504 8.67842 6.23317 8.58467C6.30757 8.46645 6.34721 8.32967 6.34754 8.18998L6.3616 5.16654C7.08154 4.60118 7.8836 4.14909 8.74004 3.82592L11.4382 5.33154C11.5556 5.39664 11.6883 5.42901 11.8225 5.42529C11.936 5.42529 12.0504 5.42529 12.1638 5.42529C12.298 5.42865 12.4306 5.39629 12.5482 5.33154L15.2519 3.82217C16.1102 4.14286 16.9145 4.59274 17.6369 5.15623L17.6472 8.17498C17.6477 8.31495 17.6873 8.45199 17.7616 8.57061C17.8197 8.66436 17.8769 8.75811 17.9304 8.85748C17.9966 8.97665 18.0938 9.07575 18.2116 9.14436L20.8929 10.6715C21.0335 11.5499 21.035 12.4449 20.8975 13.3237H20.9013Z" fill="#1A332D"/>
</svg>
