<svg width="24" height="24" viewBox="0 0 24 24" fill="none" xmlns="http://www.w3.org/2000/svg">
<path d="M12.3751 7.49545V11.5708L15.7613 13.6023C15.9319 13.7048 16.0548 13.8708 16.103 14.0638C16.1511 14.2569 16.1206 14.4611 16.0182 14.6317C15.9158 14.8023 15.7498 14.9252 15.5567 14.9733C15.3637 15.0215 15.1594 14.991 14.9888 14.8886L11.2388 12.6386C11.1278 12.5719 11.036 12.4776 10.9723 12.3649C10.9085 12.2522 10.875 12.1249 10.8751 11.9955V7.49545C10.8751 7.29654 10.9541 7.10578 11.0947 6.96512C11.2354 6.82447 11.4262 6.74545 11.6251 6.74545C11.824 6.74545 12.0148 6.82447 12.1554 6.96512C12.2961 7.10578 12.3751 7.29654 12.3751 7.49545ZM20.6251 5.24545C20.4262 5.24545 20.2354 5.32447 20.0947 5.46512C19.9541 5.60578 19.8751 5.79654 19.8751 5.99545V7.68295C19.2798 6.99295 18.6723 6.32827 17.9888 5.63639C16.7381 4.38549 15.1464 3.53091 13.4127 3.17944C11.6791 2.82797 9.88024 2.99519 8.24106 3.6602C6.60188 4.32522 5.19502 5.45854 4.19626 6.91856C3.19751 8.37857 2.65115 10.1005 2.62546 11.8693C2.59977 13.6381 3.09589 15.3752 4.05182 16.8636C5.00775 18.352 6.3811 19.5257 8.00028 20.238C9.61945 20.9504 11.4126 21.1698 13.1558 20.8688C14.899 20.5678 16.5148 19.7598 17.8013 18.5458C17.873 18.4781 17.9306 18.3969 17.9709 18.3069C18.0112 18.2169 18.0333 18.1199 18.0361 18.0214C18.0389 17.9228 18.0222 17.8247 17.9871 17.7326C17.952 17.6405 17.899 17.5562 17.8313 17.4845C17.7636 17.4129 17.6824 17.3553 17.5925 17.315C17.5025 17.2747 17.4055 17.2525 17.3069 17.2497C17.2084 17.2469 17.1102 17.2636 17.0181 17.2987C16.926 17.3339 16.8417 17.3868 16.7701 17.4545C15.6976 18.4652 14.3512 19.1376 12.8989 19.3876C11.4466 19.6377 9.95281 19.4543 8.60408 18.8605C7.25536 18.2667 6.11146 17.2887 5.31524 16.0486C4.51902 14.8086 4.10575 13.3615 4.12705 11.888C4.14836 10.4145 4.60328 8.97988 5.43501 7.76337C6.26675 6.54686 7.43844 5.60234 8.80376 5.04775C10.1691 4.49316 11.6675 4.35308 13.112 4.64501C14.5565 4.93694 15.8829 5.64793 16.9257 6.6892C17.6888 7.4617 18.3573 8.20608 19.0313 8.99545H16.8751C16.6762 8.99545 16.4854 9.07447 16.3447 9.21513C16.2041 9.35578 16.1251 9.54654 16.1251 9.74546C16.1251 9.94437 16.2041 10.1351 16.3447 10.2758C16.4854 10.4164 16.6762 10.4955 16.8751 10.4955H20.6251C20.824 10.4955 21.0148 10.4164 21.1554 10.2758C21.2961 10.1351 21.3751 9.94437 21.3751 9.74546V5.99545C21.3751 5.79654 21.2961 5.60578 21.1554 5.46512C21.0148 5.32447 20.824 5.24545 20.6251 5.24545Z" fill="#1A332D"/>
</svg>
