<svg width="24" height="24" viewBox="0 0 24 24" fill="none" xmlns="http://www.w3.org/2000/svg">
<path d="M13.9003 3.93075C13.9258 3.83556 13.9697 3.74633 14.0297 3.66815C14.0897 3.58996 14.1644 3.52435 14.2498 3.47508C14.3351 3.4258 14.4293 3.39382 14.527 3.38096C14.6246 3.36809 14.7239 3.37461 14.8191 3.40012C16.2094 3.76289 17.478 4.48973 18.494 5.50578C19.5101 6.52184 20.2369 7.79037 20.5997 9.18075C20.6252 9.27592 20.6317 9.37518 20.6189 9.47286C20.606 9.57055 20.574 9.66474 20.5247 9.75006C20.4755 9.83539 20.4099 9.91016 20.3317 9.97012C20.2535 10.0301 20.1643 10.074 20.0691 10.0995C20.0057 10.1161 19.9405 10.1246 19.875 10.1248C19.7097 10.1248 19.5491 10.0702 19.418 9.96951C19.287 9.8688 19.1929 9.72763 19.1503 9.56793C18.8545 8.43292 18.2613 7.39735 17.4319 6.56796C16.6025 5.73856 15.5669 5.14536 14.4319 4.8495C14.3366 4.82414 14.2473 4.78025 14.169 4.72033C14.0907 4.66042 14.025 4.58566 13.9756 4.50033C13.9263 4.415 13.8942 4.32077 13.8813 4.22303C13.8683 4.1253 13.8748 4.02598 13.9003 3.93075ZM13.6819 7.8495C14.9747 8.1945 15.8053 9.02512 16.1503 10.3179C16.1929 10.4776 16.287 10.6188 16.418 10.7195C16.5491 10.8202 16.7097 10.8748 16.875 10.8748C16.9405 10.8746 17.0057 10.8661 17.0691 10.8495C17.1643 10.824 17.2535 10.7801 17.3317 10.7201C17.4099 10.6602 17.4755 10.5854 17.5247 10.5001C17.574 10.4147 17.606 10.3205 17.6189 10.2229C17.6317 10.1252 17.6252 10.0259 17.5997 9.93075C17.1197 8.1345 15.8653 6.88012 14.0691 6.40012C13.9739 6.3747 13.8747 6.36827 13.777 6.3812C13.6794 6.39413 13.5852 6.42617 13.4999 6.47549C13.4147 6.5248 13.3399 6.59043 13.28 6.66863C13.2201 6.74682 13.1762 6.83605 13.1508 6.93122C13.1254 7.02638 13.1189 7.12563 13.1319 7.22328C13.1448 7.32093 13.1768 7.41508 13.2262 7.50035C13.2755 7.58562 13.3411 7.66034 13.4193 7.72025C13.4975 7.78016 13.5867 7.82407 13.6819 7.8495ZM21.3638 16.7886C21.1966 18.0589 20.5727 19.225 19.6087 20.0689C18.6446 20.9129 17.4063 21.3771 16.125 21.3748C8.68126 21.3748 2.62501 15.3186 2.62501 7.87481C2.62271 6.59352 3.0869 5.35521 3.93088 4.39115C4.77486 3.42709 5.94092 2.80322 7.21126 2.63606C7.5325 2.59684 7.8578 2.66256 8.13862 2.82341C8.41944 2.98426 8.6407 3.23162 8.76938 3.52856L10.7494 7.94887V7.96012C10.8479 8.18742 10.8886 8.43558 10.8678 8.68244C10.847 8.9293 10.7654 9.16717 10.6303 9.37481C10.6134 9.40012 10.5956 9.42356 10.5769 9.447L8.62501 11.7607C9.3272 13.1876 10.8197 14.667 12.2653 15.3711L14.5472 13.4295C14.5696 13.4107 14.5931 13.3931 14.6175 13.377C14.825 13.2386 15.0637 13.1542 15.312 13.1312C15.5603 13.1083 15.8104 13.1477 16.0397 13.2457L16.0519 13.2514L20.4684 15.2304C20.7659 15.3587 21.0139 15.5797 21.1753 15.8606C21.3366 16.1414 21.4028 16.467 21.3638 16.7886ZM19.875 16.6011C19.875 16.6011 19.8684 16.6011 19.8647 16.6011L15.4584 14.6276L13.1756 16.5692C13.1535 16.5879 13.1303 16.6055 13.1063 16.6217C12.8904 16.7657 12.6409 16.8512 12.3821 16.87C12.1233 16.8887 11.864 16.84 11.6297 16.7286C9.87376 15.8801 8.12345 14.1429 7.27407 12.4057C7.1616 12.1731 7.11113 11.9154 7.12755 11.6575C7.14398 11.3996 7.22674 11.1504 7.36782 10.9339C7.38372 10.9085 7.40159 10.8843 7.42126 10.8617L9.37501 8.54512L7.40626 4.13887C7.40589 4.13513 7.40589 4.13136 7.40626 4.12762C6.49712 4.24622 5.66239 4.69215 5.05839 5.38192C4.4544 6.07168 4.12255 6.95797 4.12501 7.87481C4.12848 11.0563 5.39388 14.1066 7.64356 16.3563C9.89325 18.6059 12.9435 19.8713 16.125 19.8748C17.0413 19.878 17.9273 19.5473 18.6175 18.9446C19.3077 18.3419 19.7547 17.5085 19.875 16.6001V16.6011Z" fill="#1A332D"/>
</svg>
