<svg width="24" height="24" viewBox="0 0 24 24" fill="none" xmlns="http://www.w3.org/2000/svg">
<path d="M12.25 2.25C10.3216 2.25 8.43657 2.82183 6.83319 3.89317C5.22982 4.96451 3.98013 6.48726 3.24218 8.26884C2.50422 10.0504 2.31114 12.0108 2.68735 13.9021C3.06355 15.7934 3.99215 17.5307 5.35571 18.8943C6.71928 20.2579 8.45656 21.1865 10.3479 21.5627C12.2392 21.9389 14.1996 21.7458 15.9812 21.0078C17.7627 20.2699 19.2855 19.0202 20.3568 17.4168C21.4282 15.8134 22 13.9284 22 12C21.9973 9.41498 20.9692 6.93661 19.1413 5.10872C17.3134 3.28084 14.835 2.25273 12.25 2.25ZM20.4653 11.25H16.7313C16.5991 8.58187 15.7684 6.04969 14.3763 4.03125C16.0068 4.469 17.4642 5.39535 18.5527 6.68582C19.6412 7.97629 20.3087 9.56903 20.4653 11.25ZM12.25 20.2397C10.4941 18.3394 9.42907 15.6459 9.27157 12.75H15.2284C15.0709 15.6441 14.0059 18.3394 12.25 20.2397ZM9.27157 11.25C9.42907 8.35594 10.4903 5.66062 12.25 3.76031C14.0059 5.66062 15.0709 8.35406 15.2284 11.25H9.27157ZM10.1238 4.03125C8.73157 6.04969 7.90094 8.58187 7.76875 11.25H4.03469C4.19133 9.56903 4.85876 7.97629 5.94728 6.68582C7.0358 5.39535 8.49325 4.469 10.1238 4.03125ZM4.03469 12.75H7.76875C7.90094 15.4181 8.73157 17.9503 10.1238 19.9688C8.49325 19.531 7.0358 18.6046 5.94728 17.3142C4.85876 16.0237 4.19133 14.431 4.03469 12.75ZM14.3763 19.9688C15.7684 17.9475 16.5991 15.4153 16.7313 12.75H20.4653C20.3087 14.431 19.6412 16.0237 18.5527 17.3142C17.4642 18.6046 16.0068 19.531 14.3763 19.9688Z" fill="#1A332D"/>
</svg>
