<svg width="24" height="24" viewBox="0 0 24 24" fill="none" xmlns="http://www.w3.org/2000/svg">
<path d="M21.1556 6.53043L9.15555 18.5304C9.0859 18.6002 9.00318 18.6555 8.91213 18.6932C8.82109 18.731 8.72349 18.7504 8.62493 18.7504C8.52637 18.7504 8.42877 18.731 8.33772 18.6932C8.24668 18.6555 8.16396 18.6002 8.0943 18.5304L2.8443 13.2804C2.70357 13.1397 2.62451 12.9488 2.62451 12.7498C2.62451 12.5508 2.70357 12.3599 2.8443 12.2192C2.98503 12.0785 3.17591 11.9994 3.37493 11.9994C3.57395 11.9994 3.76482 12.0785 3.90555 12.2192L8.62493 16.9395L20.0943 5.46918C20.235 5.32845 20.4259 5.24939 20.6249 5.24939C20.824 5.24939 21.0148 5.32845 21.1556 5.46918C21.2963 5.60991 21.3753 5.80078 21.3753 5.99981C21.3753 6.19883 21.2963 6.3897 21.1556 6.53043Z" fill="#1A332D"/>
</svg>
