<svg width="24" height="24" viewBox="0 0 24 24" fill="none" xmlns="http://www.w3.org/2000/svg">
<path d="M22.8583 8.26754C22.6891 8.12002 22.4799 8.02611 22.2572 7.99774C22.0345 7.96936 21.8084 8.0078 21.6077 8.10816L16.9005 10.4519L12.9705 3.9241C12.8694 3.7566 12.7269 3.61803 12.5565 3.52185C12.3862 3.42566 12.1939 3.37512 11.9983 3.37512C11.8027 3.37512 11.6104 3.42566 11.44 3.52185C11.2697 3.61803 11.1271 3.7566 11.0261 3.9241L7.0961 10.4547L2.39079 8.11098C2.19048 8.0115 1.96526 7.9734 1.74338 8.00145C1.5215 8.02951 1.31284 8.12247 1.14361 8.26868C0.974367 8.41489 0.85208 8.60782 0.792091 8.82327C0.732103 9.03873 0.737085 9.2671 0.806412 9.47973L4.27516 20.1072C4.31004 20.214 4.36845 20.3116 4.44608 20.3927C4.52371 20.4739 4.61859 20.5366 4.72369 20.5762C4.8288 20.6158 4.94146 20.6313 5.05335 20.6215C5.16524 20.6117 5.27351 20.5769 5.37016 20.5197C5.3936 20.5057 7.79079 19.1247 11.9983 19.1247C16.2058 19.1247 18.603 20.5057 18.6245 20.5188C18.7212 20.5766 18.8297 20.6118 18.9419 20.6219C19.054 20.632 19.167 20.6168 19.2725 20.5772C19.378 20.5377 19.4732 20.4749 19.551 20.3935C19.6289 20.3122 19.6875 20.2143 19.7223 20.1072L23.1911 9.48254C23.2624 9.26985 23.2689 9.04075 23.2096 8.82439C23.1503 8.60803 23.028 8.4142 22.8583 8.26754ZM18.5608 18.8275C17.4358 18.3504 15.1933 17.6247 11.9983 17.6247C8.80329 17.6247 6.56079 18.3504 5.43579 18.8275L2.50235 9.84348L6.72766 11.95C6.98342 12.0762 7.27713 12.1019 7.55095 12.0223C7.82477 11.9427 8.05883 11.7634 8.20704 11.5197L11.9983 5.21785L15.7895 11.5179C15.9377 11.7612 16.1716 11.9404 16.4452 12.02C16.7188 12.0996 17.0123 12.074 17.268 11.9482L21.4942 9.84348L18.5608 18.8275Z" fill="#1A332D"/>
</svg>
