<svg width="134" height="20" viewBox="0 0 134 20" fill="none" xmlns="http://www.w3.org/2000/svg">
<path d="M37.3855 17.9438H41.2195L42.1024 16.4244H37.3855V17.9438ZM31.0827 9.41H29.6969L25.632 16.4092H24.6055V20H26.2222V17.9438H34.5421V20H36.1588V16.4092H35.1323L31.0827 9.41ZM27.6542 16.4092L30.3283 11.7853L33.0279 16.4092H27.6542ZM12.0615 14.5455L3.99314 11.1066L2.28402 14.0289L11.3429 15.7457L12.0615 14.5455ZM15.5311 8.60979L10.4961 0L8.59703 3.2464L14.638 10.1292L15.5311 8.60979ZM14.2377 10.823L8.19666 3.94024L6.48756 6.8625L13.5345 12.0233L14.2377 10.823ZM90.6203 10.9496H82.7264V12.469H89.7066L90.6203 10.9496ZM13.1547 12.6716L6.10775 7.51079L4.38834 10.4583L12.4413 13.8921L13.1547 12.6716ZM1.89394 14.6974L0 17.9387H10.0649L10.958 16.4194L1.89394 14.6974ZM10.9375 17.9387H13.6115L15.9674 13.9175L18.3232 17.9387H20.9973L15.9674 9.32896L10.9375 17.9387ZM37.3855 13.6541V15.1735H42.795L43.7037 13.6541H37.3855ZM45.2794 10.9344H37.3855V12.4538H44.3762L45.2794 10.9344ZM100.485 15.452V10.9496H98.7862V17.9438H100.213L104.319 13.3857V17.9438H106.013V10.9496H104.591L100.485 15.452ZM82.711 13.6693V15.1887H88.1208L89.024 13.6693H82.711ZM92.6834 10.9496L88.6236 17.9438H90.6253L93.3045 13.3249L95.9992 17.9438H98.0986L94.0334 10.9496H92.6834ZM113.332 13.6693H109.616V10.9496H107.917V17.9438H109.616V15.2089H113.332V17.9438H115.026V10.9496H113.332V13.6693ZM131.809 10.9496L127.801 15.5077V10.9496H126.107V17.9438H127.534L131.64 13.3857V17.9438H133.333V10.9496H131.809ZM118.675 15.5077V10.9496H116.981V17.9438H118.403L122.509 13.3857V17.9438H124.203V10.9496H122.699L118.675 15.5077ZM75.931 13.4819H73.3647V10.9496H71.6711V17.9438H75.9256C77.0805 17.9438 78.2767 17.3158 78.2767 15.6647C78.2767 13.4971 76.7369 13.4617 75.9411 13.4617M75.8487 16.4599H73.3647V14.905H75.8487C76.1363 14.905 76.5826 14.981 76.5826 15.6799C76.5826 16.3788 76.2132 16.4599 75.8487 16.4599ZM68.6224 13.8212C68.8832 13.7338 69.1068 13.5626 69.2577 13.3349C69.4086 13.1072 69.4775 12.8362 69.4537 12.5652C69.4537 11.1218 68.2219 10.9496 67.3542 10.9496H62.7712V17.9438H67.4316C69.5716 17.9438 69.9975 16.784 69.9975 15.7205C70.0343 15.2921 69.9139 14.865 69.6589 14.5165C69.4035 14.1681 69.0303 13.9214 68.6069 13.8212M64.4288 12.4335H67.1235C67.5289 12.4335 67.7037 12.6412 67.7037 13.0413C67.712 13.1211 67.7037 13.2019 67.6782 13.2783C67.6531 13.3546 67.6117 13.4248 67.5569 13.4842C67.5018 13.5435 67.4349 13.5907 67.3605 13.6227C67.2857 13.6546 67.205 13.6705 67.1235 13.6693H64.4084L64.4288 12.4335ZM67.4161 16.4599H64.4288V14.9405H67.4161C67.8984 14.9405 68.2424 15.057 68.2424 15.6799C68.2424 16.1864 68.0318 16.4396 67.4161 16.4396M82.7314 17.9235H86.5605L87.4483 16.4042H82.7314V17.9235ZM57.0688 10.7622C54.2357 10.7622 52.8911 12.469 52.8911 14.3885C52.8911 16.389 54.1998 18.0197 57.0688 18.0197C58.321 18.0197 61.2109 17.4525 61.2109 14.3885C61.2109 12.393 59.9227 10.7622 57.0688 10.7622ZM57.0688 16.4801C55.4316 16.4801 54.7386 15.5482 54.7386 14.4087C54.7386 13.1527 55.5289 12.317 57.0688 12.317C58.8038 12.317 59.399 13.1527 59.399 14.4087C59.399 15.9281 58.2646 16.4801 57.0688 16.4801ZM47.4044 10.9091L43.3342 17.9033H45.3409L48.0201 13.2844L50.7147 17.9033H52.7523L48.6871 10.9091H47.4044ZM79.1645 17.9033H80.8376V10.9547H79.1645V17.9033Z" fill="black"/>
</svg>
