<svg width="40" height="40" viewBox="0 0 40 40" fill="none" xmlns="http://www.w3.org/2000/svg">
<g clip-path="url(#clip0_202_15419)">
<path d="M40 0H0V40H40V0Z" fill="#005BFF"/>
<path fill-rule="evenodd" clip-rule="evenodd" d="M19.7 20.0599L19.12 17.7799L23 15.1799L27.64 15.4999L28.32 17.7199L49.52 40.5199L16.38 50.5599L19.7 20.0599Z" fill="#F91155"/>
<path fill-rule="evenodd" clip-rule="evenodd" d="M4.26002 26.74C2.76002 27.36 1.08002 26.36 0.840019 24.7C0.680019 23.56 1.30002 22.46 2.32002 22.04C3.82002 21.42 5.50002 22.42 5.74002 24.08C5.90002 25.2 5.28002 26.32 4.26002 26.74ZM2.52002 19.68C-0.379981 20.14 -2.09998 23.22 -1.03998 26.04C-0.259981 28.14 1.90002 29.44 4.06002 29.08C6.96002 28.62 8.68002 25.54 7.62002 22.72C6.82002 20.62 4.66002 19.34 2.52002 19.68Z" fill="white"/>
<path fill-rule="evenodd" clip-rule="evenodd" d="M9.01999 18.0199C8.35999 18.1999 8.01999 18.9399 8.33999 19.5799C8.57999 20.0599 9.13999 20.2799 9.63999 20.1399L12.58 19.3599L9.63999 26.7199C9.53999 26.9599 9.75999 27.2199 10.02 27.1399L17.2 25.2199C17.7 25.0799 18.08 24.6199 18.04 24.0799C18 23.3599 17.32 22.8799 16.66 23.0599L13.08 24.0199L16 16.6799C16.1 16.4399 15.88 16.1799 15.62 16.2399L9.01999 18.0199Z" fill="white"/>
<path fill-rule="evenodd" clip-rule="evenodd" d="M37.7 10.3C37.24 10.54 37.02 11.08 37.16 11.6L38.12 15.16L31.14 12.1C30.9 12 30.64 12.22 30.7 12.48L32.68 19.84C32.82 20.34 33.28 20.72 33.8 20.7C34.52 20.66 34.98 19.98 34.82 19.3L33.86 15.7L40.84 18.76C41.08 18.86 41.34 18.64 41.28 18.38L39.28 11C39.1 10.32 38.34 9.95997 37.7 10.3Z" fill="white"/>
<path fill-rule="evenodd" clip-rule="evenodd" d="M22.72 14.1199C19.22 15.0599 16.94 17.8799 17.64 20.4199C18.32 22.9599 21.7 24.2599 25.2 23.3399C28.7 22.3999 30.98 19.5799 30.28 17.0399C29.6 14.4799 26.22 13.1799 22.72 14.1199ZM23.3 16.2599C25.72 15.6199 27.86 16.4199 28.18 17.5799C28.5 18.7399 27.04 20.5199 24.62 21.1599C22.2 21.7999 20.06 20.9999 19.74 19.8399C19.44 18.6999 20.88 16.8999 23.3 16.2599Z" fill="white"/>
</g>
<defs>
<clipPath id="clip0_202_15419">
<rect width="40" height="40" rx="8" fill="white"/>
</clipPath>
</defs>
</svg>
