<svg width="51" height="14" viewBox="0 0 51 14" fill="none" xmlns="http://www.w3.org/2000/svg">
<path fill-rule="evenodd" clip-rule="evenodd" d="M9.00079 3.3883H7.54772C4.63454 3.3883 2.14656 10.6188 5.58439 10.6119H7.79575C9.07174 10.6119 10.0143 11.0671 9.59603 12.299L9.02224 13.993H6.6759L4.76919 13.9718C2.33075 13.951 0.757197 12.7681 0.190342 10.9762C-0.426376 9.03726 0.445345 4.99792 2.95461 2.40809C4.41463 0.903216 6.43481 0 9.02224 0H13.8065L13.0552 2.12129C12.6038 3.40588 11.7051 3.39567 11.1329 3.38916C11.094 3.38873 11.0566 3.3883 11.021 3.3883H9.00079ZM35.4325 5.31325H27.7276C26.452 5.31325 25.8776 5.66292 25.6437 6.38394L24.9208 8.69387H32.6258C33.9015 8.69387 34.4757 8.344 34.7097 7.62287L35.4325 5.31325ZM25.8494 10.6188H33.5542L32.8311 12.9293C32.5972 13.6501 32.0231 13.9999 30.7473 13.9999H23.0422L23.7655 11.69C23.9994 10.9691 24.5734 10.6188 25.8494 10.6188ZM29.5141 0.0139516H37.2188L36.4958 2.32436C36.2618 3.04488 35.6876 3.39519 34.412 3.39519H26.707L27.4299 1.08527C27.6638 0.364266 28.2382 0.0139516 29.5141 0.0139516ZM17.8467 3.38133H19.7677C21.4051 3.38133 21.0294 5.39725 20.2001 7.36425C19.4698 9.09319 18.1799 10.6258 16.6417 10.6258H13.4451C12.1691 10.6258 11.5808 10.9761 11.3326 11.6973L10.546 14H12.8922L15.1817 13.9788C17.2159 13.9649 18.8746 13.8178 20.8238 12.0888C22.8796 10.262 25.2751 5.52316 24.864 2.78625C24.5452 0.637044 23.3756 0.00698886 20.5402 0.00698886H15.3802L12.3747 8.68687H14.2814H14.3105C15.4255 8.687 15.9948 8.68706 16.5922 7.09813L17.8467 3.38133ZM37.7788 13.9999H34.1424L39.0333 6.8082e-06H42.6697L40.5856 6.02721H40.628C41.0623 5.48653 41.5021 5.02853 41.9376 4.57509C41.9926 4.51776 42.0476 4.4605 42.1025 4.40316L46.2917 6.8082e-06H50.75L43.8532 6.18104L46.7239 13.9999H43.9383C43.0453 13.9999 42.6412 13.4611 42.2441 12.2293L40.9611 8.24587L39.338 9.59706L37.7788 13.9999Z" fill="#12343A"/>
</svg>
