<svg width="24" height="24" viewBox="0 0 24 24" fill="none" xmlns="http://www.w3.org/2000/svg">
<path d="M22.0001 11.9999C22.0001 12.1988 21.9211 12.3896 21.7804 12.5303C21.6398 12.6709 21.449 12.7499 21.2501 12.7499H4.56041L8.03073 16.2193C8.10041 16.289 8.15569 16.3717 8.1934 16.4628C8.23111 16.5538 8.25052 16.6514 8.25052 16.7499C8.25052 16.8485 8.23111 16.9461 8.1934 17.0371C8.15569 17.1281 8.10041 17.2109 8.03073 17.2806C7.96104 17.3502 7.87832 17.4055 7.78727 17.4432C7.69623 17.4809 7.59865 17.5003 7.5001 17.5003C7.40156 17.5003 7.30397 17.4809 7.21293 17.4432C7.12188 17.4055 7.03916 17.3502 6.96948 17.2806L2.21948 12.5306C2.14974 12.4609 2.09442 12.3782 2.05668 12.2871C2.01894 12.1961 1.99951 12.0985 1.99951 11.9999C1.99951 11.9014 2.01894 11.8038 2.05668 11.7127C2.09442 11.6217 2.14974 11.539 2.21948 11.4693L6.96948 6.7193C7.11021 6.57857 7.30108 6.49951 7.5001 6.49951C7.69912 6.49951 7.89 6.57857 8.03073 6.7193C8.17146 6.86003 8.25052 7.0509 8.25052 7.24993C8.25052 7.44895 8.17146 7.63982 8.03073 7.78055L4.56041 11.2499H21.2501C21.449 11.2499 21.6398 11.3289 21.7804 11.4696C21.9211 11.6103 22.0001 11.801 22.0001 11.9999Z" fill="#1A332D"/>
</svg>
