<svg width="24" height="24" viewBox="0 0 24 24" fill="none" xmlns="http://www.w3.org/2000/svg">
<path d="M17.2507 15.0015C16.7504 15.0014 16.2551 15.1016 15.7943 15.2963C15.3334 15.491 14.9163 15.7762 14.5676 16.135L10.2457 13.3572C10.5857 12.4854 10.5857 11.5177 10.2457 10.6459L14.5676 7.8681C15.2168 8.53309 16.0897 8.93334 17.0173 8.99125C17.9448 9.04917 18.8607 8.76062 19.5876 8.18155C20.3145 7.60248 20.8004 6.77415 20.9512 5.85715C21.1021 4.94015 20.907 3.99981 20.4039 3.21845C19.9008 2.43708 19.1255 1.87036 18.2283 1.62815C17.3311 1.38594 16.3759 1.4855 15.548 1.90753C14.72 2.32956 14.0782 3.04399 13.7471 3.91231C13.4159 4.78063 13.419 5.74098 13.7557 6.60716L9.43384 9.38498C8.9134 8.85067 8.24545 8.48371 7.51538 8.33099C6.7853 8.17827 6.02626 8.24673 5.3353 8.52763C4.64434 8.80853 4.05284 9.2891 3.63641 9.90791C3.21999 10.5267 2.99756 11.2557 2.99756 12.0015C2.99756 12.7474 3.21999 13.4764 3.63641 14.0952C4.05284 14.714 4.64434 15.1945 5.3353 15.4754C6.02626 15.7563 6.7853 15.8248 7.51538 15.6721C8.24545 15.5194 8.9134 15.1524 9.43384 14.6181L13.7557 17.3959C13.4662 18.1427 13.4233 18.9625 13.6335 19.7353C13.8436 20.5082 14.2956 21.1935 14.9234 21.6908C15.5511 22.1882 16.3216 22.4715 17.1221 22.4993C17.9225 22.5271 18.7108 22.2978 19.3715 21.8452C20.0322 21.3925 20.5307 20.7402 20.7939 19.9838C21.057 19.2274 21.0711 18.4065 20.8341 17.6415C20.597 16.8765 20.1212 16.2075 19.4764 15.7324C18.8316 15.2574 18.0516 15.0012 17.2507 15.0015ZM17.2507 3.00154C17.6957 3.00154 18.1307 3.1335 18.5007 3.38073C18.8708 3.62796 19.1591 3.97937 19.3294 4.3905C19.4997 4.80163 19.5443 5.25403 19.4575 5.69049C19.3707 6.12695 19.1564 6.52786 18.8417 6.84253C18.527 7.1572 18.1261 7.37149 17.6897 7.45831C17.2532 7.54512 16.8008 7.50057 16.3897 7.33027C15.9785 7.15997 15.6271 6.87158 15.3799 6.50157C15.1327 6.13156 15.0007 5.69655 15.0007 5.25154C15.0007 4.6548 15.2378 4.0825 15.6597 3.66055C16.0817 3.23859 16.654 3.00154 17.2507 3.00154ZM6.75071 14.2515C6.30571 14.2515 5.87069 14.1196 5.50068 13.8723C5.13067 13.6251 4.84228 13.2737 4.67198 12.8626C4.50169 12.4514 4.45713 11.999 4.54395 11.5626C4.63076 11.1261 4.84506 10.7252 5.15972 10.4105C5.47439 10.0959 5.8753 9.88159 6.31176 9.79477C6.74822 9.70796 7.20062 9.75251 7.61175 9.92281C8.02288 10.0931 8.37429 10.3815 8.62152 10.7515C8.86875 11.1215 9.00071 11.5565 9.00071 12.0015C9.00071 12.5983 8.76366 13.1706 8.3417 13.5925C7.91975 14.0145 7.34745 14.2515 6.75071 14.2515ZM17.2507 21.0015C16.8057 21.0015 16.3707 20.8696 16.0007 20.6223C15.6307 20.3751 15.3423 20.0237 15.172 19.6126C15.0017 19.2014 14.9571 18.749 15.0439 18.3126C15.1308 17.8761 15.3451 17.4752 15.6597 17.1605C15.9744 16.8459 16.3753 16.6316 16.8118 16.5448C17.2482 16.458 17.7006 16.5025 18.1118 16.6728C18.5229 16.8431 18.8743 17.1315 19.1215 17.5015C19.3688 17.8715 19.5007 18.3065 19.5007 18.7515C19.5007 19.3483 19.2637 19.9206 18.8417 20.3425C18.4197 20.7645 17.8475 21.0015 17.2507 21.0015Z" fill="#1A332D"/>
</svg>
