<svg width="24" height="24" viewBox="0 0 24 24" fill="none" xmlns="http://www.w3.org/2000/svg">
<path d="M21.2595 6.46825C21.214 6.35581 21.142 6.25607 21.0495 6.17761C20.957 6.09914 20.8468 6.04428 20.7284 6.01773C20.6101 5.99118 20.487 5.99374 20.3699 6.02518C20.2527 6.05662 20.145 6.11601 20.0558 6.19825L16.2777 9.68482L14.6624 9.33794L14.3155 7.72263L17.802 3.9445C17.8843 3.85534 17.9437 3.74756 17.9751 3.6304C18.0066 3.51325 18.0091 3.39022 17.9826 3.27186C17.956 3.1535 17.9012 3.04334 17.8227 2.95084C17.7442 2.85834 17.6445 2.78625 17.532 2.74075C16.5073 2.32622 15.3964 2.16971 14.297 2.28496C13.1976 2.40021 12.1434 2.7837 11.2269 3.40174C10.3104 4.01978 9.55968 4.85344 9.04076 5.82949C8.52184 6.80553 8.25057 7.89409 8.25079 8.9995C8.24958 9.93295 8.44107 10.8566 8.81329 11.7126L3.1686 16.5933C3.15454 16.6045 3.14142 16.6176 3.12829 16.6298C2.56562 17.1925 2.24951 17.9556 2.24951 18.7514C2.24951 19.1454 2.32712 19.5355 2.4779 19.8996C2.62868 20.2636 2.84968 20.5943 3.12829 20.8729C3.4069 21.1515 3.73765 21.3726 4.10167 21.5233C4.46569 21.6741 4.85584 21.7517 5.24985 21.7517C6.04559 21.7517 6.80874 21.4356 7.37142 20.8729C7.3836 20.8608 7.39673 20.8467 7.40798 20.8336L12.2877 15.187C13.3156 15.6382 14.4398 15.8259 15.5585 15.7332C16.6773 15.6404 17.7552 15.2701 18.6948 14.6558C19.6343 14.0415 20.4058 13.2025 20.9394 12.2149C21.4731 11.2272 21.7519 10.1221 21.7508 8.9995C21.7523 8.13193 21.5854 7.2723 21.2595 6.46825ZM15.0008 14.2495C14.113 14.2483 13.24 14.0225 12.463 13.5933C12.3124 13.5101 12.1379 13.4812 11.9686 13.5114C11.7993 13.5416 11.6455 13.6291 11.533 13.7592L6.29235 19.8286C6.00876 20.098 5.63114 20.246 5.23999 20.241C4.84885 20.236 4.47514 20.0784 4.19854 19.8018C3.92193 19.5252 3.76433 19.1514 3.75932 18.7603C3.75431 18.3692 3.9023 17.9915 4.17173 17.7079L10.2364 12.4683C10.3667 12.3557 10.4544 12.2018 10.4846 12.0322C10.5148 11.8627 10.4858 11.688 10.4024 11.5373C9.92426 10.6726 9.69989 9.69053 9.75504 8.70399C9.81019 7.71744 10.1426 6.76649 10.7141 5.96046C11.2856 5.15442 12.073 4.52603 12.9857 4.14752C13.8984 3.76901 14.8994 3.65574 15.8736 3.82075L12.9486 6.99044C12.8672 7.07873 12.8082 7.18527 12.7766 7.3011C12.7449 7.41692 12.7415 7.53866 12.7667 7.65607L13.2974 10.1245C13.3277 10.2657 13.3982 10.3951 13.5003 10.4972C13.6024 10.5993 13.7318 10.6698 13.873 10.7001L16.3433 11.2308C16.4607 11.2559 16.5824 11.2526 16.6983 11.2209C16.8141 11.1893 16.9206 11.1303 17.0089 11.0489L20.1786 8.12388C20.305 8.8767 20.2658 9.64801 20.0639 10.3842C19.862 11.1203 19.5021 11.8037 19.0093 12.3866C18.5165 12.9696 17.9027 13.4383 17.2104 13.76C16.5182 14.0817 15.7641 14.2487 15.0008 14.2495Z" fill="#1A332D"/>
</svg>
