<svg width="24" height="24" viewBox="0 0 24 24" fill="none" xmlns="http://www.w3.org/2000/svg">
<path d="M21.6853 11.625L12.375 2.31469C12.2362 2.1748 12.071 2.06389 11.889 1.98841C11.707 1.91292 11.5118 1.87438 11.3147 1.87501H2.62501C2.4261 1.87501 2.23533 1.95403 2.09468 2.09468C1.95403 2.23533 1.87501 2.4261 1.87501 2.62501V11.3147C1.87438 11.5118 1.91292 11.707 1.98841 11.889C2.06389 12.071 2.1748 12.2362 2.31469 12.375L11.625 21.6853C11.7643 21.8246 11.9297 21.9352 12.1117 22.0106C12.2937 22.086 12.4888 22.1248 12.6858 22.1248C12.8828 22.1248 13.0779 22.086 13.2599 22.0106C13.4419 21.9352 13.6073 21.8246 13.7466 21.6853L21.6853 13.7466C21.8246 13.6073 21.9352 13.4419 22.0106 13.2599C22.086 13.0779 22.1248 12.8828 22.1248 12.6858C22.1248 12.4888 22.086 12.2937 22.0106 12.1117C21.9352 11.9297 21.8246 11.7643 21.6853 11.625ZM12.6853 20.625L3.37501 11.3147V3.37501H11.3147L20.625 12.6853L12.6853 20.625ZM7.87501 6.75001C7.87501 6.97251 7.80903 7.19002 7.68541 7.37502C7.56179 7.56003 7.38609 7.70422 7.18053 7.78937C6.97496 7.87452 6.74876 7.8968 6.53053 7.85339C6.3123 7.80998 6.11185 7.70284 5.95451 7.5455C5.79718 7.38817 5.69003 7.18771 5.64662 6.96948C5.60322 6.75126 5.62549 6.52506 5.71064 6.31949C5.79579 6.11392 5.93999 5.93822 6.12499 5.8146C6.31 5.69099 6.5275 5.62501 6.75001 5.62501C7.04838 5.62501 7.33452 5.74353 7.5455 5.95451C7.75648 6.16549 7.87501 6.45164 7.87501 6.75001Z" fill="#1A332D"/>
</svg>
