<svg width="24" height="24" viewBox="0 0 24 24" fill="none" xmlns="http://www.w3.org/2000/svg">
<path d="M2.5 5.99976C2.5 5.80084 2.57902 5.61008 2.71967 5.46943C2.86032 5.32877 3.05109 5.24976 3.25 5.24976H19.75C19.9489 5.24976 20.1397 5.32877 20.2803 5.46943C20.421 5.61008 20.5 5.80084 20.5 5.99976C20.5 6.19867 20.421 6.38943 20.2803 6.53009C20.1397 6.67074 19.9489 6.74976 19.75 6.74976H3.25C3.05109 6.74976 2.86032 6.67074 2.71967 6.53009C2.57902 6.38943 2.5 6.19867 2.5 5.99976ZM3.25 12.7498H10C10.1989 12.7498 10.3897 12.6707 10.5303 12.5301C10.671 12.3894 10.75 12.1987 10.75 11.9998C10.75 11.8008 10.671 11.6101 10.5303 11.4694C10.3897 11.3288 10.1989 11.2498 10 11.2498H3.25C3.05109 11.2498 2.86032 11.3288 2.71967 11.4694C2.57902 11.6101 2.5 11.8008 2.5 11.9998C2.5 12.1987 2.57902 12.3894 2.71967 12.5301C2.86032 12.6707 3.05109 12.7498 3.25 12.7498ZM11.5 17.2498H3.25C3.05109 17.2498 2.86032 17.3288 2.71967 17.4694C2.57902 17.6101 2.5 17.8008 2.5 17.9998C2.5 18.1987 2.57902 18.3894 2.71967 18.5301C2.86032 18.6707 3.05109 18.7498 3.25 18.7498H11.5C11.6989 18.7498 11.8897 18.6707 12.0303 18.5301C12.171 18.3894 12.25 18.1987 12.25 17.9998C12.25 17.8008 12.171 17.6101 12.0303 17.4694C11.8897 17.3288 11.6989 17.2498 11.5 17.2498ZM21.7806 18.5304C21.711 18.6001 21.6283 18.6554 21.5372 18.6932C21.4462 18.7309 21.3486 18.7503 21.25 18.7503C21.1514 18.7503 21.0538 18.7309 20.9628 18.6932C20.8717 18.6554 20.789 18.6001 20.7194 18.5304L18.8125 16.6273C18.037 17.1389 17.0993 17.3444 16.1809 17.2041C15.2625 17.0637 14.4289 16.5875 13.8416 15.8676C13.2544 15.1477 12.9552 14.2355 13.0022 13.3076C13.0491 12.3798 13.4388 11.5024 14.0957 10.8455C14.7526 10.1885 15.63 9.79885 16.5579 9.75191C17.4857 9.70497 18.398 10.0041 19.1179 10.5914C19.8377 11.1787 20.314 12.0123 20.4543 12.9306C20.5947 13.849 20.3891 14.7868 19.8775 15.5623L21.7806 17.4654C21.8509 17.5351 21.9067 17.6181 21.9448 17.7094C21.9829 17.8008 22.0025 17.8989 22.0025 17.9979C22.0025 18.0969 21.9829 18.1949 21.9448 18.2863C21.9067 18.3777 21.8509 18.4607 21.7806 18.5304ZM16.75 15.7498C17.195 15.7498 17.63 15.6178 18 15.3706C18.37 15.1233 18.6584 14.7719 18.8287 14.3608C18.999 13.9497 19.0436 13.4973 18.9568 13.0608C18.87 12.6243 18.6557 12.2234 18.341 11.9088C18.0263 11.5941 17.6254 11.3798 17.189 11.293C16.7525 11.2062 16.3001 11.2507 15.889 11.421C15.4778 11.5913 15.1264 11.8797 14.8792 12.2497C14.632 12.6197 14.5 13.0547 14.5 13.4998C14.5 14.0965 14.7371 14.6688 15.159 15.0907C15.581 15.5127 16.1533 15.7498 16.75 15.7498Z" fill="#1A332D"/>
</svg>
