<svg width="164" height="25" viewBox="0 0 164 25" fill="none" xmlns="http://www.w3.org/2000/svg">
<path d="M163.99 12.005C163.878 9.59312 162.843 7.32128 161.106 5.67467C159.369 4.02806 157.068 3.13718 154.694 3.19228C152.32 3.24737 150.061 4.24408 148.4 5.96955C146.739 7.69503 145.807 10.0125 145.803 12.4271V12.6107C145.807 15.0632 146.766 17.4141 148.472 19.1483C150.177 20.8825 152.49 21.8583 154.902 21.862C156.095 21.8661 157.277 21.6291 158.38 21.1646C159.482 20.7001 160.483 20.0174 161.324 19.1562V21.3146H164V12.1063L163.99 12.005ZM154.898 19.1408C153.195 19.139 151.563 18.4504 150.359 17.2262C149.155 16.0019 148.478 14.342 148.476 12.6107V12.4271C148.476 10.6952 149.153 9.03426 150.357 7.80963C151.561 6.585 153.195 5.89701 154.898 5.89701C156.601 5.89701 158.235 6.585 159.439 7.80963C160.644 9.03426 161.32 10.6952 161.32 12.4271V12.6107C161.319 14.342 160.641 16.0019 159.437 17.2262C158.233 18.4504 156.601 19.139 154.898 19.1408Z" fill="#1A332D"/>
<path d="M144.551 4.59128L144.612 4.50892L144.512 4.40769H140.942L133.961 11.4765V0.519832H131.285V20.9783H133.961V15.3146L134.238 15.0367L140.112 20.9783H143.89L136.131 13.1168L144.551 4.59128Z" fill="#1A332D"/>
<path d="M116.856 3.17755C114.401 3.18254 112.048 4.17636 110.312 5.94143C108.576 7.70651 107.599 10.099 107.594 12.5952V20.9783H110.275V12.5952C110.275 10.8185 110.969 9.11458 112.205 7.85826C113.44 6.60193 115.116 5.89614 116.864 5.89614C118.611 5.89614 120.287 6.60193 121.522 7.85826C122.758 9.11458 123.452 10.8185 123.452 12.5952V20.9783H126.127V12.5952C126.122 10.0976 125.143 7.70373 123.405 5.93841C121.668 4.17309 119.312 3.18027 116.856 3.17755Z" fill="#1A332D"/>
<path d="M93.9726 3.17755C91.5612 3.18163 89.2498 4.15745 87.5447 5.89119C85.8396 7.62493 84.8799 9.97521 84.8759 12.4271V12.6107C84.876 14.5695 85.4877 16.4777 86.6227 18.0604C87.7577 19.6431 89.3575 20.8187 91.1917 21.4177C93.0258 22.0168 94.9996 22.0085 96.8288 21.3939C98.6579 20.7794 100.248 19.5903 101.37 17.9981L101.427 17.9157L99.2541 16.3304L99.1951 16.4127C98.5254 17.3634 97.617 18.1138 96.5647 18.5856C95.5124 19.0575 94.3549 19.2334 93.2129 19.0951C92.0709 18.9568 90.9864 18.5093 90.0726 17.7993C89.1587 17.0894 88.4491 16.143 88.0178 15.059C89.484 14.232 91.1333 13.7985 92.81 13.7997C93.9273 13.8247 95.0393 13.9644 96.1291 14.2166L96.6842 14.3247C97.2294 14.424 97.7823 14.4722 98.3362 14.4688C99.6171 14.4544 100.89 14.2669 102.123 13.9112L103.071 13.6195V12.4271C103.067 9.97492 102.107 7.62437 100.402 5.89058C98.6961 4.15679 96.3842 3.18118 93.9726 3.17755ZM100.337 11.5469C99.6799 11.6753 99.0124 11.7436 98.3429 11.7511C97.9504 11.7537 97.5584 11.7199 97.1719 11.6499C97.0043 11.619 96.8288 11.5847 96.6454 11.5469C95.3895 11.262 94.1084 11.1074 92.8218 11.0854C91.0019 11.0776 89.2026 11.4777 87.5521 12.2572C87.5965 10.6183 88.2456 9.05638 89.3702 7.88153C90.4949 6.70667 92.013 6.00484 93.623 5.91539C95.2331 5.82594 96.8173 6.35542 98.0612 7.39868C99.3051 8.44195 100.118 9.9227 100.337 11.5469Z" fill="#1A332D"/>
<path d="M79.3176 1.40174H76.6431V21.8619H79.3176V1.40174Z" fill="#1A332D"/>
<path d="M62.0201 3.17067C59.6766 3.16107 57.4207 4.07536 55.7262 5.72146C54.0318 7.36756 53.0308 9.61734 52.9335 11.9981H52.9233V25H55.5911V19.1493C56.432 20.0103 57.4328 20.6928 58.5353 21.1573C59.6377 21.6218 60.82 21.8589 62.0133 21.8551C64.4259 21.8523 66.7389 20.8769 68.4451 19.1426C70.1514 17.4084 71.1115 15.0569 71.1151 12.6038V12.4202C71.1111 9.96863 70.1516 7.61861 68.4469 5.88491C66.7422 4.15122 64.4311 3.17521 62.0201 3.17067ZM68.444 12.4202V12.6038C68.4167 14.3176 67.7279 15.9518 66.5263 17.1539C65.3248 18.356 63.7066 19.0298 62.0209 19.0298C60.3352 19.0298 58.7171 18.356 57.5155 17.1539C56.3139 15.9518 55.6252 14.3176 55.5979 12.6038V12.4202C55.6252 10.7064 56.3139 9.07223 57.5155 7.87011C58.7171 6.66798 60.3352 5.99426 62.0209 5.99426C63.7066 5.99426 65.3248 6.66798 66.5263 7.87011C67.7279 9.07223 68.4167 10.7064 68.444 12.4202Z" fill="#1A332D"/>
<path d="M40.3372 9.11228H40.2832C39.3095 9.05052 37.4973 8.94071 35.9162 8.47574C34.8464 8.16348 33.542 7.59042 33.4053 6.62618C33.272 5.69625 33.4695 4.91044 33.9926 4.30135C34.8565 3.28564 36.5827 2.72459 38.8506 2.72459C42.8598 2.72459 44.7936 5.2982 44.8746 5.40457L44.9522 5.34109L45.0062 5.4183L47.0901 3.87414L47.031 3.79178C46.9214 3.63736 44.2587 0 38.8506 0C35.7491 0.00171574 33.3699 0.871594 31.9677 2.52385C30.9299 3.74374 30.5098 5.2982 30.7561 7.01908C31.3619 11.2741 37.7217 11.679 40.1161 11.8231H40.1684C41.4086 11.9021 43.5955 12.4648 44.5405 13.6916C44.9691 14.2475 45.1074 14.9115 44.9623 15.7213C44.4325 18.6861 41.0813 19.1288 39.1273 19.1288C38.6984 19.1305 38.2697 19.1081 37.8432 19.0618C34.3689 18.6604 31.4564 15.675 31.4311 15.6441L31.3619 15.572L29.4366 17.4748L29.5075 17.5468C29.6526 17.6978 33.1151 21.258 37.5378 21.7676C38.0879 21.831 38.6411 21.8625 39.1948 21.8619C40.6078 21.8829 42.0129 21.644 43.3424 21.1568C45.7048 20.2526 47.1728 18.542 47.5896 16.2103C47.8714 14.6387 47.544 13.1889 46.6429 12.0187C44.6771 9.45886 40.7759 9.13973 40.3372 9.11228Z" fill="#1A332D"/>
<path d="M12.6183 0.0514386H12.0817C8.87856 0.0550716 5.8076 1.35051 3.54261 3.65355C1.27762 5.95659 0.00357298 9.07914 0 12.3361V24.6225H12.6183C15.7981 24.5843 18.8349 23.2731 21.0701 20.9733C23.3054 18.6735 24.559 15.5704 24.559 12.337C24.559 9.10357 23.3054 6.0005 21.0701 3.70067C18.8349 1.40083 15.7981 0.0896476 12.6183 0.0514386ZM12.3787 17.1968C11.214 17.1946 10.0932 16.7441 9.24177 15.936C8.39032 15.1278 7.87129 14.0219 7.78901 12.8405V12.1645C7.86817 10.9528 8.40773 9.81994 9.29359 9.00545C10.1794 8.19096 11.3421 7.75873 12.5357 7.80018C13.7294 7.84163 14.8603 8.35351 15.6895 9.22756C16.5186 10.1016 16.9809 11.2693 16.9785 12.4837V12.518C16.9777 13.7583 16.4928 14.9476 15.6304 15.8248C14.768 16.702 13.5985 17.1954 12.3787 17.1968ZM7.78901 18.1233C8.83629 19.0119 10.1111 19.5784 11.4638 19.7563C12.8166 19.9342 14.1912 19.7162 15.4264 19.1278C16.6615 18.5394 17.706 17.605 18.4374 16.4342C19.1687 15.2635 19.5565 13.9049 19.5552 12.518V12.4837C19.5263 10.5675 18.7574 8.73982 17.4145 7.39517C16.0717 6.05052 14.2626 5.29683 12.3779 5.29683C10.4932 5.29683 8.68406 6.05052 7.3412 7.39517C5.99833 8.73982 5.22944 10.5675 5.20055 12.4837V12.518C5.20055 12.657 5.20055 12.7942 5.21405 12.9281V22.0026H2.57665V12.3361C2.57933 9.77371 3.58162 7.31702 5.36359 5.50512C7.14556 3.69322 9.56166 2.6741 12.0817 2.67137H12.6183C13.8773 2.65431 15.1271 2.89172 16.2951 3.36981C17.4631 3.8479 18.5261 4.55715 19.4223 5.45637C20.3186 6.3556 21.0302 7.42689 21.5159 8.60806C22.0016 9.78922 22.2518 11.0567 22.2518 12.337C22.2518 13.6172 22.0016 14.8847 21.5159 16.0659C21.0302 17.2471 20.3186 18.3184 19.4223 19.2176C18.5261 20.1168 17.4631 20.8261 16.2951 21.3041C15.1271 21.7822 13.8773 22.0196 12.6183 22.0026H7.78901V18.1233Z" fill="#1A332D"/>
</svg>
